<svg xmlns="http://www.w3.org/2000/svg" viewBox="0 0 16 16" width="16" height="16" shape-rendering="crispEdges" fill="#243D58">
  <!-- Pixelpond Wear OS Micro Icons. Single-ink master; recolor via fill. -->
  <g>
    <rect x="6" y="1" width="4" height="1"/>
    <rect x="4" y="2" width="8" height="1"/>
    <rect x="3" y="3" width="10" height="1"/>
    <rect x="3" y="4" width="3" height="1"/>
    <rect x="10" y="4" width="3" height="1"/>
    <rect x="3" y="5" width="3" height="1"/>
    <rect x="10" y="5" width="3" height="1"/>
    <rect x="3" y="6" width="3" height="1"/>
    <rect x="10" y="6" width="3" height="1"/>
    <rect x="3" y="7" width="10" height="1"/>
    <rect x="4" y="8" width="8" height="1"/>
    <rect x="5" y="9" width="6" height="1"/>
    <rect x="6" y="10" width="4" height="1"/>
    <rect x="7" y="11" width="2" height="1"/>
    <rect x="7" y="12" width="1" height="1"/>
  </g>
</svg>
